<?xml version="1.0" standalone="no"?><!DOCTYPE svg PUBLIC "-//W3C//DTD SVG 1.1//EN"
  "http://www.w3.org/Graphics/SVG/1.1/DTD/svg11.dtd">
<svg class="icon" viewBox="0 0 1280 1024" version="1.1" xmlns="http://www.w3.org/2000/svg"
     xmlns:xlink="http://www.w3.org/1999/xlink" width="200" height="200">
  <path
    d="M1045.845333 637.895111h-289.166222a38.627556 38.627556 0 0 0-38.513778 38.513778c0 21.219556 17.351111 38.570667 38.513778 38.570667h289.166222a38.513778 38.513778 0 0 0 0-77.027556m0-159.402667h-289.166222a38.627556 38.627556 0 0 0-38.513778 38.513778c0 21.219556 17.351111 38.513778 38.513778 38.513778h289.166222a38.513778 38.513778 0 0 0 0-77.027556m0-161.052444h-289.166222a38.627556 38.627556 0 0 0-38.513778 38.513778c0 21.219556 17.351111 38.513778 38.513778 38.513777h289.166222a38.513778 38.513778 0 0 0 0-77.027555M397.482667 309.930667a96.711111 96.711111 0 0 1 96.540444 96.540444 96.711111 96.711111 0 0 1-96.540444 96.540445 96.711111 96.711111 0 0 1-96.597334-96.540445 96.711111 96.711111 0 0 1 96.597334-96.540444m109.056 221.696a166.741333 166.741333 0 0 0 57.685333-125.155556 166.855111 166.855111 0 0 0-333.539556 0c0 47.786667 21.333333 93.582222 57.685334 125.155556-29.411556 16.497778-54.727111 39.480889-74.069334 67.128889a220.899556 220.899556 0 0 0-40.106666 127.488 35.214222 35.214222 0 0 0 70.257778 0 153.258667 153.258667 0 0 1 153.031111-153.144889 153.315556 153.315556 0 0 1 153.144889 153.144889c0 19.342222 15.758222 35.100444 35.100444 35.100444 19.342222 0 35.157333-15.758222 35.157333-35.100444a222.435556 222.435556 0 0 0-40.106666-127.431112 230.4 230.4 0 0 0-74.24-67.185777"
    class="selected" fill="#1296db"></path>
  <path
    d="M1173.048889 900.096c0 1.137778-0.967111 2.048-2.048 2.048H80.440889a2.048 2.048 0 0 1-1.991111-2.048V88.177778c0-1.080889 0.910222-1.991111 1.991111-1.991111h1090.56c1.137778 0 2.048 0.910222 2.048 1.991111v811.918222zM1171.000889 7.964444H80.440889C36.067556 7.907556 0 43.975111 0 88.348444v811.918223c0 44.259556 36.067556 80.270222 80.440889 80.270222h1090.56c44.259556 0 80.327111-36.010667 80.327111-80.213333V88.177778c0-44.202667-36.067556-80.270222-80.327111-80.270222z"
    class="selected" fill="#1296db"></path>
</svg>
