<?xml version="1.0" standalone="no"?><!DOCTYPE svg PUBLIC "-//W3C//DTD SVG 1.1//EN"
  "http://www.w3.org/Graphics/SVG/1.1/DTD/svg11.dtd">
<svg class="icon" viewBox="0 0 1024 1024" version="1.1" xmlns="http://www.w3.org/2000/svg"
     xmlns:xlink="http://www.w3.org/1999/xlink" width="200" height="200">
  <path
    d="M320.685714 482.102857h-0.685714c-18.457143 0-52.697143-6.857143-74.64-52.445714-13.04-27.097143-19.645714-63.76-19.645714-108.948572 0-46.857143 6.857143-84.925714 20.365714-113.142857 0.102857-0.217143 0.205714-0.434286 0.32-0.651428 23.291429-45.954286 56.937143-52.822857 74.925714-52.822857a81.6 81.6 0 0 1 55.588572 21.634285l6.857143 6.16a32 32 0 1 1-42.742858 47.634286l-7.28-6.537143-1.142857-1.04a17.36 17.36 0 0 0-11.314285-3.851428c-7.828571 0-14.857143 11.942857-17.68 17.44-6.388571 13.508571-13.931429 39.2-13.931429 85.177142 0 34.514286 4.731429 63.348571 13.325714 81.211429C310.857143 418.102857 317.714286 418.102857 320 418.102857h0.662857c3.828571 0 9.417143-2.434286 13.211429-5.714286l7.382857-7.291428a32 32 0 1 1 44.937143 45.565714l-7.908572 7.84-0.925714 0.88c-15.645714 14.228571-36.788571 22.72-56.674286 22.72zM564.88 349.417143a32 32 0 0 0 0-64h-72.937143V220.571429h72.937143a32 32 0 0 0 0-64h-104.445714a32 32 0 0 0-32 32v1.508571a32.102857 32.102857 0 0 0-0.525715 5.782857V447.657143a32 32 0 0 0 41.211429 30.64h95.725714a32 32 0 0 0 0-64h-72.902857v-64.88zM765.52 156.571429h-104.445714a32 32 0 1 0 0 64h20.217143v227.085714a32 32 0 0 0 64 0V220.571429h20.228571a32 32 0 0 0 0-64zM761.691429 649.234286h-499.428572a32 32 0 0 1 0-64h499.428572a32 32 0 0 1 0 64zM761.691429 769.234286h-499.428572a32 32 0 0 1 0-64h499.428572a32 32 0 0 1 0 64zM761.691429 889.234286h-499.428572a32 32 0 1 1 0-64h499.428572a32 32 0 0 1 0 64z"
    class="selected" fill="#1296db"></path>
  <path
    d="M891.428571 0H132.571429A32 32 0 0 0 100.571429 32v960a32 32 0 0 0 32 32h758.857142a32 32 0 0 0 32-32V32a32 32 0 0 0-32-32z m-64 960H196.571429a32 32 0 0 1-32-32V96a32 32 0 0 1 32-32h630.857142a32 32 0 0 1 32 32v832a32 32 0 0 1-32 32z"
    class="selected" fill="#1296db"></path>
</svg>
