<?xml version="1.0" standalone="no"?><!DOCTYPE svg PUBLIC "-//W3C//DTD SVG 1.1//EN"
  "http://www.w3.org/Graphics/SVG/1.1/DTD/svg11.dtd">
<svg class="icon" viewBox="0 0 1024 1024" version="1.1" xmlns="http://www.w3.org/2000/svg"
     xmlns:xlink="http://www.w3.org/1999/xlink" width="200" height="200">
  <path
    d="M365.98511 162.867201h279.332833a23.085358 23.085358 0 0 0 0-46.170716H365.98511a23.085358 23.085358 0 0 0 0 46.170716zM162.949385 372.366826h349.050615a23.085358 23.085358 0 0 0 0-46.170716H162.949385a23.085358 23.085358 0 0 0 0 46.170716zM418.966007 418.883823H162.949385a23.085358 23.085358 0 0 0 0 46.170716h256.016622a23.085358 23.085358 0 0 0 0-46.170716zM435.818318 209.384198a23.085358 23.085358 0 0 0 0 46.170716h139.666417a23.085358 23.085358 0 0 0 0-46.170716zM744.70041 325.734403H605.14942a23.085358 23.085358 0 0 0 0 46.170716h139.55099a23.085358 23.085358 0 0 0 0-46.170716zM349.132799 581.751024h-50.556935a23.085358 23.085358 0 0 1-16.390604-6.81018l-23.085358-23.085358a71.56461 71.56461 0 0 0-98.689906 0L146.558781 565.591274a23.085358 23.085358 0 1 0 32.896635 32.896635l13.620362-13.735788a23.893346 23.893346 0 0 1 32.896635 0l23.085358 23.085358a69.256074 69.256074 0 0 0 49.28724 20.430542h50.556934a23.085358 23.085358 0 1 0 0-46.170716zM581.833208 418.883823h-69.256074a23.085358 23.085358 0 0 0 0 46.170716h69.256074a23.085358 23.085358 0 1 0 0-46.170716z"
    fill="#1296db" class="selected"></path>
  <path
    d="M715.035725 581.751024A93.14942 93.14942 0 1 0 808.069718 674.785018a93.14942 93.14942 0 0 0-93.033993-93.033994z m0 139.666417a46.170716 46.170716 0 1 1 46.170716-46.170716 46.170716 46.170716 0 0 1-46.170716 46.170716z"
    fill="#1296db" class="selected"></path>
  <path
    d="M954.200035 0H69.915392A69.833208 69.833208 0 0 0 0.082184 69.833208v604.95181a69.833208 69.833208 0 0 0 69.833208 69.833208h462.86143A86.570093 86.570093 0 0 1 531.04542 764.125353a23.085358 23.085358 0 0 0 15.813471 25.971028 81.837595 81.837595 0 0 1 51.942055 50.095227v160.443239a23.085358 23.085358 0 0 0 33.704623 20.776823l82.645582-41.322791 82.761009 41.322791a23.085358 23.085358 0 0 0 33.242916-20.776823V840.653316a82.414728 82.414728 0 0 1 52.057482-50.556935 23.085358 23.085358 0 0 0 15.582617-27.125295 89.802043 89.802043 0 0 1-1.731402-18.35286h56.905408a69.256074 69.256074 0 0 0 69.256074-69.833208V69.833208A69.256074 69.256074 0 0 0 954.200035 0zM784.98436 963.005714l-59.444797-29.780112a23.085358 23.085358 0 0 0-10.388412-2.423963 23.085358 23.085358 0 0 0-10.388411 2.423963l-59.444797 29.780112v-105.846367a81.722168 81.722168 0 0 1 54.135165 21.123102 23.085358 23.085358 0 0 0 31.28066 0 81.491314 81.491314 0 0 1 54.250592-21.123102z m66.024124-209.730479a129.508859 129.508859 0 0 0-57.713395 57.713395 129.278005 129.278005 0 0 0-78.490218 21.007676 129.162579 129.162579 0 0 0-70.872049-21.238529h-7.502742a130.085993 130.085993 0 0 0-57.713395-57.713395 128.931725 128.931725 0 0 0-21.007676-78.605645 127.777457 127.777457 0 0 0 21.007676-78.259364 129.508859 129.508859 0 0 0 57.713395-57.713395 126.96947 126.96947 0 0 0 78.374791-21.007676 130.20142 130.20142 0 0 0 78.490218 21.007676 130.085993 130.085993 0 0 0 57.713395 57.713395 129.393432 129.393432 0 0 0 21.007676 78.490218 128.931725 128.931725 0 0 0-21.123103 78.605644z m126.969469-78.490217a23.085358 23.085358 0 0 1-23.085358 23.085358h-41.899925a86.570093 86.570093 0 0 1 5.540486-7.733595 23.085358 23.085358 0 0 0 0-31.165234 82.299302 82.299302 0 0 1-19.507127-71.795463 23.085358 23.085358 0 0 0-15.46719-27.817857 82.761009 82.761009 0 0 1-53.211751-53.096324 23.085358 23.085358 0 0 0-27.009869-15.582616 82.530155 82.530155 0 0 1-72.603451-19.507128 23.085358 23.085358 0 0 0-31.165233 0 82.876436 82.876436 0 0 1-72.603452 19.507128A23.085358 23.085358 0 0 0 600.301495 506.492757a82.299302 82.299302 0 0 1-53.096324 53.096324 23.085358 23.085358 0 0 0-13.620361 11.542679 23.085358 23.085358 0 0 0-2.53939 15.698043 84.492411 84.492411 0 0 1-20.892249 74.104 23.085358 23.085358 0 0 0 1.385122 29.549258 70.179489 70.179489 0 0 1 5.425059 7.618168H69.915392a23.085358 23.085358 0 0 1-23.085358-23.085358V69.833208a23.085358 23.085358 0 0 1 23.085358-23.085358h884.284643a23.085358 23.085358 0 0 1 23.085358 23.085358z"
    fill="#1296db" class="selected"></path>
</svg>
